<svg width="65" height="69" viewBox="0 0 65 69" fill="none" xmlns="http://www.w3.org/2000/svg">
<path d="M32.5 0C14.5489 0 0 14.6007 0 32.6156H65C65 14.6007 50.4451 0 32.5 0Z" fill="#DDC3A5"/>
<path d="M61.4421 36.3906C61.4421 52.4099 48.4565 65.4357 32.5 65.4357C16.5375 65.4357 3.55787 52.4039 3.55787 36.3906H0C0 54.3755 14.5789 69.0062 32.5 69.0062C50.4211 69.0062 65 54.3755 65 36.3906H61.4421Z" fill="#DDC3A5"/>
<path d="M32.5 60.8371C45.9348 60.8371 56.866 49.8671 56.866 36.3844H53.3081C53.3081 47.9015 43.9702 57.2666 32.5 57.2666C21.0238 57.2666 11.6919 47.8955 11.6919 36.3844H8.13997C8.13398 49.8731 19.0651 60.8371 32.5 60.8371Z" fill="#DDC3A5"/>
</svg>
